# xmcd
#
# Track frame offsets:
#	150
#	14161
#	24879
#	36218
#	52266
#	67045
#	78103
#	106114
#	128872
#	140221
#	151475
#	170661
#	183399
#	195288
#	205126
#	221297
#	241970
#	260028
#	276772
#	286840
#
# Disc length: 3960 seconds
#
# Revision: 0
# Processed by: cddbd v1.4PL0 Copyright (c) Steve Scherf et al.
# Submitted via: dBpowerAMP V4.0
#
DISCID=260f7614
DTITLE=gildo de freitas - as 20 mais
DYEAR=1900
DGENRE=gaucha
TTITLE0=acordeona
TTITLE1=baile do chico torto
TTITLE2=rocorrendo ao rio grande
TTITLE3=saudade do alegrete
TTITLE4=carta pra mamae
TTITLE5=ja dormi no cemiterio
TTITLE6=eu reconheco que sou grosso
TTITLE7=figueira amiga
TTITLE8=saudade do pago
TTITLE9=briga no carreiramento
TTITLE10=resposta do facao tres listas
TTITLE11=prova de amor
TTITLE12=estrada da vida
TTITLE13=que jeito tem a mariana
TTITLE14=sem voce nao sou feliz
TTITLE15=nos todos somos iguais
TTITLE16=vida de campones
TTITLE17=campereada de amor
TTITLE18=conhecendo o brasil
TTITLE19=tranca de china
EXTD=
EXTT0=
EXTT1=
EXTT2=
EXTT3=
EXTT4=
EXTT5=
EXTT6=
EXTT7=
EXTT8=
EXTT9=
EXTT10=
EXTT11=
EXTT12=
EXTT13=
EXTT14=
EXTT15=
EXTT16=
EXTT17=
EXTT18=
EXTT19=
PLAYORDER=
